<?xml version="1.0" encoding="UTF-8"?>
<svg xmlns="http://www.w3.org/2000/svg" xmlns:xlink="http://www.w3.org/1999/xlink" width="24pt" height="24pt" viewBox="0 0 24 24" version="1.1">
<g id="surface19323381">
<path style=" stroke:none;fill-rule:nonzero;fill:rgb(100%,100%,100%);fill-opacity:1;" d="M 11.988281 1.988281 C 11.574219 1.996094 11.242188 2.335938 11.25 2.75 L 11.25 4.25 C 11.246094 4.519531 11.386719 4.773438 11.621094 4.910156 C 11.855469 5.042969 12.144531 5.042969 12.378906 4.910156 C 12.613281 4.773438 12.753906 4.519531 12.75 4.25 L 12.75 2.75 C 12.753906 2.546875 12.671875 2.351562 12.53125 2.207031 C 12.386719 2.066406 12.191406 1.984375 11.988281 1.988281 Z M 5.449219 4.703125 C 5.144531 4.703125 4.871094 4.886719 4.757812 5.171875 C 4.640625 5.453125 4.710938 5.777344 4.929688 5.988281 L 5.988281 7.050781 C 6.28125 7.34375 6.757812 7.34375 7.050781 7.050781 C 7.34375 6.757812 7.34375 6.28125 7.050781 5.988281 L 5.988281 4.929688 C 5.847656 4.785156 5.652344 4.703125 5.449219 4.703125 Z M 18.527344 4.703125 C 18.332031 4.707031 18.144531 4.789062 18.011719 4.929688 L 16.949219 5.988281 C 16.65625 6.28125 16.65625 6.757812 16.949219 7.050781 C 17.242188 7.34375 17.71875 7.34375 18.011719 7.050781 L 19.070312 5.992188 C 19.292969 5.773438 19.359375 5.445312 19.238281 5.160156 C 19.117188 4.875 18.835938 4.691406 18.527344 4.703125 Z M 12 6.5 C 8.960938 6.5 6.5 8.960938 6.5 12 C 6.5 15.039062 8.960938 17.5 12 17.5 C 15.039062 17.5 17.5 15.039062 17.5 12 C 17.5 8.960938 15.039062 6.5 12 6.5 Z M 2.75 11.25 C 2.480469 11.246094 2.226562 11.386719 2.089844 11.621094 C 1.957031 11.855469 1.957031 12.144531 2.089844 12.378906 C 2.226562 12.613281 2.480469 12.753906 2.75 12.75 L 4.25 12.75 C 4.519531 12.753906 4.773438 12.613281 4.910156 12.378906 C 5.042969 12.144531 5.042969 11.855469 4.910156 11.621094 C 4.773438 11.386719 4.519531 11.246094 4.25 11.25 Z M 19.75 11.25 C 19.480469 11.246094 19.226562 11.386719 19.089844 11.621094 C 18.957031 11.855469 18.957031 12.144531 19.089844 12.378906 C 19.226562 12.613281 19.480469 12.753906 19.75 12.75 L 21.25 12.75 C 21.519531 12.753906 21.773438 12.613281 21.910156 12.378906 C 22.042969 12.144531 22.042969 11.855469 21.910156 11.621094 C 21.773438 11.386719 21.519531 11.246094 21.25 11.25 Z M 6.503906 16.722656 C 6.308594 16.726562 6.125 16.808594 5.988281 16.949219 L 4.929688 18.007812 C 4.738281 18.199219 4.664062 18.476562 4.734375 18.734375 C 4.804688 18.992188 5.007812 19.195312 5.265625 19.265625 C 5.523438 19.335938 5.800781 19.261719 5.988281 19.070312 L 7.050781 18.011719 C 7.273438 17.796875 7.339844 17.464844 7.21875 17.179688 C 7.097656 16.894531 6.816406 16.714844 6.503906 16.722656 Z M 17.472656 16.722656 C 17.167969 16.722656 16.890625 16.90625 16.777344 17.191406 C 16.660156 17.472656 16.730469 17.796875 16.949219 18.011719 L 18.007812 19.070312 C 18.304688 19.363281 18.777344 19.363281 19.070312 19.070312 C 19.363281 18.777344 19.363281 18.304688 19.070312 18.011719 L 18.011719 16.949219 C 17.867188 16.804688 17.675781 16.722656 17.472656 16.722656 Z M 11.988281 18.988281 C 11.574219 18.996094 11.242188 19.335938 11.25 19.75 L 11.25 21.25 C 11.246094 21.519531 11.386719 21.773438 11.621094 21.910156 C 11.855469 22.042969 12.144531 22.042969 12.378906 21.910156 C 12.613281 21.773438 12.753906 21.519531 12.75 21.25 L 12.75 19.75 C 12.753906 19.546875 12.671875 19.351562 12.53125 19.207031 C 12.386719 19.066406 12.191406 18.984375 11.988281 18.988281 Z M 11.988281 18.988281 "/>
</g>
</svg>
